<?xml version="1.0" encoding="utf-8"?>
<!-- Generator: Adobe Illustrator 27.8.0, SVG Export Plug-In . SVG Version: 6.00 Build 0)  -->
<svg version="1.1" xmlns="http://www.w3.org/2000/svg" xmlns:xlink="http://www.w3.org/1999/xlink" x="0px" y="0px"
	 viewBox="0 0 230.64 59.28" style="enable-background:new 0 0 230.64 59.28;" xml:space="preserve">
<style type="text/css">
	.st0{enable-background:new    ;}
	.st1{fill:none;}
	.st2{fill:#063EB0;}
</style>
<g id="Rectangle_1_00000077317372100833366950000004938406135297355653_" class="st0">
	<g id="Rectangle_1">
	</g>
</g>
<g id="PyJobShop">
	<g>
		
			<rect x="12.27" y="14.5" transform="matrix(1 -4.157409e-03 4.157409e-03 1 -0.1304 0.491)" class="st1" width="211.53" height="34.25"/>
		<path class="st2" d="M25.86,16.3c1.3-0.01,2.49,0.2,3.57,0.62c1.08,0.42,2.01,1.01,2.78,1.76c0.78,0.76,1.38,1.68,1.81,2.76
			c0.43,1.08,0.65,2.28,0.66,3.59c0.01,1.3-0.21,2.49-0.64,3.56s-1.05,2-1.85,2.77c-0.8,0.77-1.75,1.37-2.86,1.79
			c-1.11,0.42-2.33,0.63-3.66,0.64l-5.01,0.02l0.03,7.88l-5.31,0.02l-0.11-25.37L25.86,16.3z M20.64,29.51l3.85-0.02
			c1.54-0.01,2.72-0.39,3.55-1.14s1.25-1.85,1.24-3.27c-0.01-1.45-0.43-2.55-1.26-3.3s-2.02-1.12-3.56-1.11l-3.87,0.02L20.64,29.51z
			"/>
		<path class="st2" d="M41.57,48.65c-0.05,0-0.16,0-0.35,0s-0.39,0-0.62-0.01s-0.43-0.01-0.62-0.01s-0.31-0.01-0.36-0.02L39.6,44.5
			c0.05,0.01,0.12,0.02,0.23,0.03c0.11,0,0.22,0.01,0.34,0.01c0.12,0,0.24,0,0.34,0c0.11,0,0.19,0,0.25,0c0.96,0,1.72-0.17,2.27-0.5
			s0.94-0.87,1.14-1.6l0.17-0.7l-6.88-19.48l5.64-0.02l4.14,14.68l0.32,0l4.02-14.71L57,22.15l-6.6,19.72
			c-0.4,1.25-0.87,2.31-1.38,3.17c-0.52,0.86-1.13,1.55-1.83,2.09c-0.7,0.54-1.51,0.92-2.43,1.16S42.78,48.65,41.57,48.65z"/>
		<path class="st2" d="M64.5,34.05c0.03,1.03,0.35,1.85,0.96,2.45c0.61,0.6,1.43,0.9,2.46,0.9c1.1,0,1.94-0.33,2.51-0.98
			c0.57-0.65,0.85-1.6,0.85-2.85l-0.07-17.45l5.31-0.02l0.07,17.49c0.01,1.37-0.19,2.58-0.57,3.64c-0.39,1.06-0.95,1.95-1.69,2.68
			c-0.74,0.73-1.64,1.28-2.7,1.66c-1.06,0.38-2.27,0.57-3.62,0.58c-1.3,0-2.48-0.18-3.54-0.55c-1.06-0.37-1.97-0.91-2.72-1.61
			s-1.34-1.55-1.75-2.55c-0.41-1-0.62-2.12-0.63-3.36L64.5,34.05z"/>
		<path class="st2" d="M90.87,41.82c-1.49,0.01-2.83-0.22-4.01-0.67s-2.19-1.11-3.01-1.98c-0.82-0.87-1.46-1.93-1.89-3.18
			s-0.66-2.67-0.67-4.25c-0.01-1.57,0.21-2.98,0.64-4.23c0.43-1.25,1.06-2.31,1.89-3.19c0.82-0.88,1.82-1.55,3-2.02
			c1.18-0.47,2.5-0.7,3.98-0.71c1.48-0.01,2.8,0.22,3.98,0.68c1.18,0.46,2.18,1.12,3.01,1.99c0.83,0.87,1.47,1.93,1.91,3.17
			c0.44,1.25,0.67,2.65,0.68,4.23c0.01,1.58-0.2,3-0.63,4.26c-0.43,1.26-1.05,2.32-1.87,3.2c-0.82,0.88-1.82,1.55-3,2.01
			S92.36,41.81,90.87,41.82z M90.85,37.64c1.37-0.01,2.43-0.53,3.17-1.57s1.11-2.5,1.1-4.39c0-0.93-0.1-1.76-0.3-2.5
			c-0.2-0.74-0.48-1.36-0.85-1.86c-0.37-0.5-0.82-0.89-1.35-1.15c-0.53-0.27-1.13-0.4-1.81-0.4c-0.68,0-1.29,0.14-1.82,0.41
			c-0.53,0.27-0.98,0.66-1.34,1.17c-0.36,0.51-0.64,1.13-0.83,1.87c-0.19,0.74-0.28,1.57-0.28,2.5c0.01,1.9,0.38,3.36,1.13,4.39
			S89.47,37.64,90.85,37.64z"/>
		<path class="st2" d="M116,41.59c-1.38,0.01-2.59-0.28-3.63-0.85c-1.04-0.58-1.82-1.4-2.36-2.46l-0.32,0l0.01,3.04l-4.96,0.02
			l-0.11-26.79l5.12-0.02l0.04,10.49l0.32,0c0.24-0.53,0.56-1,0.94-1.43c0.39-0.42,0.83-0.78,1.33-1.08c0.5-0.3,1.05-0.52,1.64-0.68
			c0.59-0.16,1.22-0.24,1.89-0.25c1.23,0,2.33,0.22,3.3,0.67c0.97,0.45,1.79,1.11,2.48,1.96c0.68,0.85,1.21,1.9,1.57,3.14
			c0.36,1.24,0.55,2.64,0.55,4.2c0.01,1.56-0.17,2.96-0.53,4.19c-0.36,1.24-0.87,2.29-1.54,3.15s-1.49,1.53-2.46,1.99
			C118.32,41.35,117.22,41.59,116,41.59z M114.16,25.89c-0.67,0-1.27,0.14-1.82,0.4c-0.54,0.27-1,0.65-1.38,1.15
			s-0.67,1.1-0.88,1.81c-0.21,0.71-0.31,1.5-0.31,2.38c0,0.88,0.11,1.67,0.33,2.37s0.51,1.3,0.9,1.8c0.38,0.5,0.84,0.88,1.38,1.14
			c0.54,0.26,1.15,0.39,1.83,0.39s1.29-0.14,1.83-0.4c0.54-0.27,1-0.65,1.38-1.14c0.38-0.49,0.67-1.1,0.86-1.81
			c0.2-0.71,0.29-1.51,0.29-2.4c0-0.88-0.11-1.67-0.32-2.38s-0.5-1.31-0.88-1.8c-0.38-0.49-0.84-0.87-1.38-1.13
			S114.84,25.88,114.16,25.89z"/>
		<path class="st2" d="M132.5,34.18c0.06,0.52,0.23,0.98,0.52,1.4c0.28,0.42,0.66,0.77,1.12,1.06s1.01,0.51,1.63,0.67
			s1.31,0.23,2.06,0.23c0.69,0,1.32-0.08,1.9-0.25c0.57-0.16,1.07-0.38,1.48-0.67s0.74-0.63,0.97-1.03c0.23-0.4,0.35-0.84,0.35-1.32
			c0-0.4-0.08-0.76-0.25-1.09c-0.17-0.33-0.42-0.62-0.78-0.88c-0.35-0.26-0.81-0.49-1.37-0.69c-0.56-0.2-1.22-0.38-2-0.54
			l-3.31-0.69c-4.6-0.94-6.9-3.35-6.92-7.21c0-1.2,0.22-2.28,0.68-3.25s1.11-1.81,1.95-2.51s1.86-1.24,3.05-1.62
			c1.19-0.38,2.52-0.57,3.99-0.58c1.39-0.01,2.68,0.18,3.85,0.55c1.17,0.37,2.19,0.89,3.05,1.56c0.86,0.67,1.54,1.47,2.03,2.41
			s0.76,1.97,0.8,3.09l-4.99,0.02c-0.06-0.5-0.22-0.96-0.48-1.37c-0.26-0.41-0.59-0.76-1-1.05c-0.41-0.29-0.88-0.51-1.43-0.67
			c-0.54-0.16-1.14-0.23-1.79-0.23c-0.67,0-1.27,0.08-1.81,0.23c-0.54,0.15-1,0.36-1.39,0.64s-0.68,0.61-0.89,1.01
			c-0.21,0.39-0.31,0.83-0.31,1.31c0,0.79,0.33,1.42,0.98,1.89c0.65,0.48,1.72,0.87,3.21,1.18l3.06,0.64
			c1.28,0.26,2.38,0.6,3.3,1.01c0.92,0.41,1.68,0.91,2.27,1.49c0.59,0.58,1.03,1.26,1.32,2.03c0.28,0.77,0.43,1.65,0.43,2.63
			c0.01,1.28-0.23,2.43-0.7,3.45s-1.15,1.89-2.04,2.6c-0.89,0.71-1.96,1.26-3.23,1.65c-1.26,0.39-2.69,0.58-4.29,0.59
			c-1.51,0.01-2.88-0.17-4.12-0.52c-1.23-0.35-2.29-0.86-3.17-1.53c-0.88-0.66-1.57-1.47-2.08-2.42c-0.5-0.95-0.78-2.01-0.83-3.2
			L132.5,34.18z"/>
		<path class="st2" d="M152.4,14.35l5.03-0.02l0.04,10.58l0.32,0c0.44-1.12,1.17-1.99,2.18-2.62c1.01-0.63,2.23-0.95,3.66-0.96
			c1.04,0,1.98,0.15,2.8,0.47c0.82,0.32,1.52,0.79,2.1,1.4s1.02,1.37,1.32,2.28c0.3,0.91,0.46,1.94,0.46,3.1l0.05,12.48l-5.12,0.02
			l-0.05-11.27c-0.01-1.35-0.31-2.36-0.92-3.05s-1.5-1.02-2.67-1.02c-0.64,0-1.22,0.11-1.71,0.31s-0.92,0.5-1.26,0.87
			c-0.34,0.37-0.61,0.81-0.79,1.33c-0.18,0.52-0.27,1.09-0.26,1.72l0.05,11.13l-5.12,0.02L152.4,14.35z"/>
		<path class="st2" d="M183.91,41.43c-1.49,0.01-2.83-0.22-4.01-0.67s-2.19-1.11-3.01-1.98c-0.82-0.87-1.46-1.93-1.89-3.18
			s-0.66-2.67-0.67-4.25c-0.01-1.57,0.21-2.98,0.64-4.23s1.06-2.31,1.88-3.19c0.82-0.88,1.82-1.55,3-2.02s2.5-0.7,3.98-0.71
			c1.48-0.01,2.8,0.22,3.98,0.68s2.18,1.12,3.01,1.99c0.83,0.87,1.47,1.93,1.91,3.17c0.44,1.25,0.67,2.65,0.68,4.23
			c0.01,1.58-0.2,3-0.63,4.26s-1.05,2.32-1.87,3.2c-0.82,0.88-1.82,1.55-3,2.01S185.4,41.43,183.91,41.43z M183.89,37.25
			c1.37-0.01,2.43-0.53,3.17-1.57c0.74-1.04,1.11-2.5,1.1-4.39c0-0.93-0.1-1.76-0.3-2.5c-0.2-0.74-0.48-1.36-0.85-1.86
			c-0.37-0.5-0.82-0.89-1.35-1.15c-0.53-0.27-1.13-0.4-1.81-0.4c-0.68,0-1.29,0.14-1.82,0.41c-0.53,0.27-0.98,0.66-1.34,1.17
			s-0.64,1.13-0.83,1.87c-0.19,0.74-0.28,1.57-0.28,2.5c0.01,1.9,0.38,3.36,1.13,4.39C181.44,36.75,182.51,37.26,183.89,37.25z"/>
		<path class="st2" d="M208.73,21.2c1.23,0,2.33,0.22,3.31,0.66s1.81,1.1,2.5,1.96c0.69,0.86,1.22,1.91,1.59,3.14
			c0.37,1.23,0.56,2.64,0.56,4.21c0.01,1.57-0.17,2.97-0.52,4.21c-0.35,1.24-0.87,2.29-1.54,3.14s-1.5,1.52-2.46,1.98
			c-0.97,0.46-2.05,0.69-3.26,0.7c-1.39,0.01-2.6-0.28-3.62-0.85c-1.02-0.57-1.77-1.37-2.25-2.4l-0.32,0l0.04,9.4l-5.12,0.02
			l-0.11-25.82l4.96-0.02l0.01,3.18l0.32,0c0.26-0.54,0.58-1.03,0.99-1.46c0.4-0.44,0.86-0.81,1.36-1.11
			c0.5-0.31,1.06-0.54,1.66-0.7C207.43,21.29,208.06,21.21,208.73,21.2z M207.06,36.94c0.69,0,1.31-0.13,1.85-0.39
			c0.54-0.26,1-0.64,1.38-1.13c0.37-0.49,0.66-1.1,0.85-1.81s0.29-1.52,0.29-2.42c0-0.89-0.11-1.69-0.31-2.39s-0.5-1.3-0.88-1.79
			c-0.38-0.49-0.84-0.87-1.38-1.13c-0.54-0.26-1.15-0.39-1.83-0.39s-1.29,0.14-1.84,0.4c-0.54,0.27-1,0.65-1.38,1.14
			c-0.38,0.49-0.67,1.1-0.87,1.81s-0.3,1.51-0.3,2.4s0.11,1.69,0.32,2.39s0.5,1.3,0.89,1.79c0.38,0.49,0.84,0.87,1.38,1.13
			C205.77,36.82,206.38,36.95,207.06,36.94z"/>
	</g>
</g>
</svg>
